<mxfile host="app.diagrams.net" modified="2021-04-23T16:06:27.616Z" agent="5.0 (Windows NT 10.0; Win64; x64) AppleWebKit/537.36 (KHTML, like Gecko) Chrome/89.0.4389.114 Safari/537.36 OPR/75.0.3969.171" etag="Pxzg-NDE0qe-AzyIMZHt" version="14.6.6" type="github">
  <diagram id="C5RBs43oDa-KdzZeNtuy" name="Page-1">
    <mxGraphModel dx="1567" dy="1112" grid="1" gridSize="10" guides="1" tooltips="1" connect="1" arrows="1" fold="1" page="1" pageScale="1" pageWidth="827" pageHeight="1169" math="0" shadow="0">
      <root>
        <mxCell id="WIyWlLk6GJQsqaUBKTNV-0" />
        <mxCell id="WIyWlLk6GJQsqaUBKTNV-1" parent="WIyWlLk6GJQsqaUBKTNV-0" />
        <mxCell id="WIyWlLk6GJQsqaUBKTNV-2" value="" style="rounded=0;html=1;jettySize=auto;orthogonalLoop=1;fontSize=11;endArrow=block;endFill=0;endSize=8;strokeWidth=1;shadow=0;labelBackgroundColor=none;edgeStyle=orthogonalEdgeStyle;" parent="WIyWlLk6GJQsqaUBKTNV-1" source="WIyWlLk6GJQsqaUBKTNV-3" target="WIyWlLk6GJQsqaUBKTNV-6" edge="1">
          <mxGeometry relative="1" as="geometry" />
        </mxCell>
        <mxCell id="WIyWlLk6GJQsqaUBKTNV-3" value="Lamp doesn&#39;t work" style="rounded=1;whiteSpace=wrap;html=1;fontSize=12;glass=0;strokeWidth=1;shadow=0;" parent="WIyWlLk6GJQsqaUBKTNV-1" vertex="1">
          <mxGeometry x="160" y="80" width="120" height="40" as="geometry" />
        </mxCell>
        <mxCell id="WIyWlLk6GJQsqaUBKTNV-4" value="Yes" style="rounded=0;html=1;jettySize=auto;orthogonalLoop=1;fontSize=11;endArrow=block;endFill=0;endSize=8;strokeWidth=1;shadow=0;labelBackgroundColor=none;edgeStyle=orthogonalEdgeStyle;" parent="WIyWlLk6GJQsqaUBKTNV-1" source="WIyWlLk6GJQsqaUBKTNV-6" target="WIyWlLk6GJQsqaUBKTNV-10" edge="1">
          <mxGeometry y="20" relative="1" as="geometry">
            <mxPoint as="offset" />
          </mxGeometry>
        </mxCell>
        <mxCell id="WIyWlLk6GJQsqaUBKTNV-5" value="No" style="edgeStyle=orthogonalEdgeStyle;rounded=0;html=1;jettySize=auto;orthogonalLoop=1;fontSize=11;endArrow=block;endFill=0;endSize=8;strokeWidth=1;shadow=0;labelBackgroundColor=none;" parent="WIyWlLk6GJQsqaUBKTNV-1" source="WIyWlLk6GJQsqaUBKTNV-6" target="WIyWlLk6GJQsqaUBKTNV-7" edge="1">
          <mxGeometry y="10" relative="1" as="geometry">
            <mxPoint as="offset" />
          </mxGeometry>
        </mxCell>
        <mxCell id="WIyWlLk6GJQsqaUBKTNV-6" value="Lamp&lt;br&gt;plugged in?" style="rhombus;whiteSpace=wrap;html=1;shadow=0;fontFamily=Helvetica;fontSize=12;align=center;strokeWidth=1;spacing=6;spacingTop=-4;" parent="WIyWlLk6GJQsqaUBKTNV-1" vertex="1">
          <mxGeometry x="170" y="170" width="100" height="80" as="geometry" />
        </mxCell>
        <mxCell id="WIyWlLk6GJQsqaUBKTNV-7" value="Plug in lamp" style="rounded=1;whiteSpace=wrap;html=1;fontSize=12;glass=0;strokeWidth=1;shadow=0;" parent="WIyWlLk6GJQsqaUBKTNV-1" vertex="1">
          <mxGeometry x="320" y="190" width="120" height="40" as="geometry" />
        </mxCell>
        <mxCell id="WIyWlLk6GJQsqaUBKTNV-8" value="No" style="rounded=0;html=1;jettySize=auto;orthogonalLoop=1;fontSize=11;endArrow=block;endFill=0;endSize=8;strokeWidth=1;shadow=0;labelBackgroundColor=none;edgeStyle=orthogonalEdgeStyle;" parent="WIyWlLk6GJQsqaUBKTNV-1" source="WIyWlLk6GJQsqaUBKTNV-10" target="WIyWlLk6GJQsqaUBKTNV-11" edge="1">
          <mxGeometry x="0.3333" y="20" relative="1" as="geometry">
            <mxPoint as="offset" />
          </mxGeometry>
        </mxCell>
        <mxCell id="WIyWlLk6GJQsqaUBKTNV-9" value="Yes" style="edgeStyle=orthogonalEdgeStyle;rounded=0;html=1;jettySize=auto;orthogonalLoop=1;fontSize=11;endArrow=block;endFill=0;endSize=8;strokeWidth=1;shadow=0;labelBackgroundColor=none;" parent="WIyWlLk6GJQsqaUBKTNV-1" source="WIyWlLk6GJQsqaUBKTNV-10" target="WIyWlLk6GJQsqaUBKTNV-12" edge="1">
          <mxGeometry y="10" relative="1" as="geometry">
            <mxPoint as="offset" />
          </mxGeometry>
        </mxCell>
        <mxCell id="WIyWlLk6GJQsqaUBKTNV-10" value="Bulb&lt;br&gt;burned out?" style="rhombus;whiteSpace=wrap;html=1;shadow=0;fontFamily=Helvetica;fontSize=12;align=center;strokeWidth=1;spacing=6;spacingTop=-4;" parent="WIyWlLk6GJQsqaUBKTNV-1" vertex="1">
          <mxGeometry x="170" y="290" width="100" height="80" as="geometry" />
        </mxCell>
        <mxCell id="WIyWlLk6GJQsqaUBKTNV-11" value="Repair Lamp" style="rounded=1;whiteSpace=wrap;html=1;fontSize=12;glass=0;strokeWidth=1;shadow=0;" parent="WIyWlLk6GJQsqaUBKTNV-1" vertex="1">
          <mxGeometry x="160" y="430" width="120" height="40" as="geometry" />
        </mxCell>
        <mxCell id="WIyWlLk6GJQsqaUBKTNV-12" value="Replace Bulb" style="rounded=1;whiteSpace=wrap;html=1;fontSize=12;glass=0;strokeWidth=1;shadow=0;" parent="WIyWlLk6GJQsqaUBKTNV-1" vertex="1">
          <mxGeometry x="320" y="310" width="120" height="40" as="geometry" />
        </mxCell>
        <mxCell id="_Be9lgDANuGz6kZ1BEno-0" value="&lt;font style=&quot;font-size: 30px&quot;&gt;START&lt;/font&gt;" style="ellipse;whiteSpace=wrap;html=1;fontFamily=Times New Roman;fontSize=30;" vertex="1" parent="WIyWlLk6GJQsqaUBKTNV-1">
          <mxGeometry x="-350" y="20" width="160" height="60" as="geometry" />
        </mxCell>
        <mxCell id="_Be9lgDANuGz6kZ1BEno-3" value="" style="endArrow=classic;html=1;fontFamily=Times New Roman;fontSize=30;exitX=0.5;exitY=1;exitDx=0;exitDy=0;" edge="1" parent="WIyWlLk6GJQsqaUBKTNV-1" source="_Be9lgDANuGz6kZ1BEno-0">
          <mxGeometry width="50" height="50" relative="1" as="geometry">
            <mxPoint x="-250" y="590" as="sourcePoint" />
            <mxPoint x="-270" y="130" as="targetPoint" />
          </mxGeometry>
        </mxCell>
        <mxCell id="_Be9lgDANuGz6kZ1BEno-6" value="Ввод a" style="rounded=1;whiteSpace=wrap;html=1;fontFamily=Times New Roman;fontSize=30;arcSize=40;" vertex="1" parent="WIyWlLk6GJQsqaUBKTNV-1">
          <mxGeometry x="-355" y="130" width="170" height="70" as="geometry" />
        </mxCell>
        <mxCell id="_Be9lgDANuGz6kZ1BEno-7" value="" style="rhombus;whiteSpace=wrap;html=1;fontFamily=Times New Roman;fontSize=30;" vertex="1" parent="WIyWlLk6GJQsqaUBKTNV-1">
          <mxGeometry x="-330" y="260" width="120" height="80" as="geometry" />
        </mxCell>
        <mxCell id="_Be9lgDANuGz6kZ1BEno-11" value="" style="endArrow=classic;html=1;fontFamily=Times New Roman;fontSize=30;exitX=0.5;exitY=1;exitDx=0;exitDy=0;entryX=0.5;entryY=0;entryDx=0;entryDy=0;" edge="1" parent="WIyWlLk6GJQsqaUBKTNV-1" source="_Be9lgDANuGz6kZ1BEno-6" target="_Be9lgDANuGz6kZ1BEno-7">
          <mxGeometry width="50" height="50" relative="1" as="geometry">
            <mxPoint x="-250" y="590" as="sourcePoint" />
            <mxPoint x="-200" y="540" as="targetPoint" />
          </mxGeometry>
        </mxCell>
        <mxCell id="_Be9lgDANuGz6kZ1BEno-12" value="" style="endArrow=classic;html=1;fontFamily=Times New Roman;fontSize=30;" edge="1" parent="WIyWlLk6GJQsqaUBKTNV-1">
          <mxGeometry width="50" height="50" relative="1" as="geometry">
            <mxPoint x="-520" y="300" as="sourcePoint" />
            <mxPoint x="-520" y="360" as="targetPoint" />
          </mxGeometry>
        </mxCell>
        <mxCell id="_Be9lgDANuGz6kZ1BEno-13" value="&lt;span style=&quot;font-size: 20px&quot;&gt;Вывод &quot;illegal value of a&quot;&lt;/span&gt;" style="rounded=1;whiteSpace=wrap;html=1;fontFamily=Times New Roman;fontSize=30;arcSize=43;" vertex="1" parent="WIyWlLk6GJQsqaUBKTNV-1">
          <mxGeometry x="-590" y="360" width="140" height="70" as="geometry" />
        </mxCell>
        <mxCell id="_Be9lgDANuGz6kZ1BEno-14" value="" style="endArrow=classic;html=1;fontFamily=Times New Roman;fontSize=30;exitX=0.5;exitY=1;exitDx=0;exitDy=0;" edge="1" parent="WIyWlLk6GJQsqaUBKTNV-1" source="_Be9lgDANuGz6kZ1BEno-7">
          <mxGeometry width="50" height="50" relative="1" as="geometry">
            <mxPoint x="-250" y="570" as="sourcePoint" />
            <mxPoint x="-270" y="400" as="targetPoint" />
          </mxGeometry>
        </mxCell>
        <mxCell id="_Be9lgDANuGz6kZ1BEno-29" value="" style="edgeStyle=orthogonalEdgeStyle;rounded=0;orthogonalLoop=1;jettySize=auto;html=1;fontFamily=Times New Roman;fontSize=30;" edge="1" parent="WIyWlLk6GJQsqaUBKTNV-1" source="_Be9lgDANuGz6kZ1BEno-15" target="_Be9lgDANuGz6kZ1BEno-23">
          <mxGeometry relative="1" as="geometry" />
        </mxCell>
        <mxCell id="_Be9lgDANuGz6kZ1BEno-15" value="x:=(x+a/x)/2" style="rounded=1;whiteSpace=wrap;html=1;fontFamily=Times New Roman;fontSize=30;arcSize=45;" vertex="1" parent="WIyWlLk6GJQsqaUBKTNV-1">
          <mxGeometry x="-360" y="660" width="180" height="70" as="geometry" />
        </mxCell>
        <mxCell id="_Be9lgDANuGz6kZ1BEno-17" value="a&amp;lt;0" style="text;html=1;strokeColor=none;fillColor=none;align=center;verticalAlign=middle;whiteSpace=wrap;rounded=0;fontFamily=Times New Roman;fontSize=30;" vertex="1" parent="WIyWlLk6GJQsqaUBKTNV-1">
          <mxGeometry x="-433" y="260" width="40" height="20" as="geometry" />
        </mxCell>
        <mxCell id="_Be9lgDANuGz6kZ1BEno-19" value="" style="endArrow=none;html=1;fontFamily=Times New Roman;fontSize=30;exitX=0;exitY=0.5;exitDx=0;exitDy=0;" edge="1" parent="WIyWlLk6GJQsqaUBKTNV-1" source="_Be9lgDANuGz6kZ1BEno-7">
          <mxGeometry width="50" height="50" relative="1" as="geometry">
            <mxPoint x="-250" y="570" as="sourcePoint" />
            <mxPoint x="-520" y="300" as="targetPoint" />
          </mxGeometry>
        </mxCell>
        <mxCell id="_Be9lgDANuGz6kZ1BEno-20" value="" style="endArrow=classic;html=1;fontFamily=Times New Roman;fontSize=30;exitX=0.5;exitY=1;exitDx=0;exitDy=0;" edge="1" parent="WIyWlLk6GJQsqaUBKTNV-1">
          <mxGeometry width="50" height="50" relative="1" as="geometry">
            <mxPoint x="-270.5" y="600" as="sourcePoint" />
            <mxPoint x="-270.5" y="660" as="targetPoint" />
          </mxGeometry>
        </mxCell>
        <mxCell id="_Be9lgDANuGz6kZ1BEno-21" value="xp:=x" style="rounded=1;whiteSpace=wrap;html=1;fontFamily=Times New Roman;fontSize=30;arcSize=45;" vertex="1" parent="WIyWlLk6GJQsqaUBKTNV-1">
          <mxGeometry x="-340" y="540" width="140" height="60" as="geometry" />
        </mxCell>
        <mxCell id="_Be9lgDANuGz6kZ1BEno-22" value="" style="endArrow=classic;html=1;fontFamily=Times New Roman;fontSize=30;exitX=0.5;exitY=1;exitDx=0;exitDy=0;" edge="1" parent="WIyWlLk6GJQsqaUBKTNV-1">
          <mxGeometry width="50" height="50" relative="1" as="geometry">
            <mxPoint x="-270.5" y="730" as="sourcePoint" />
            <mxPoint x="-270.5" y="790" as="targetPoint" />
          </mxGeometry>
        </mxCell>
        <mxCell id="_Be9lgDANuGz6kZ1BEno-23" value="" style="rhombus;whiteSpace=wrap;html=1;fontFamily=Times New Roman;fontSize=30;" vertex="1" parent="WIyWlLk6GJQsqaUBKTNV-1">
          <mxGeometry x="-330" y="790" width="120" height="80" as="geometry" />
        </mxCell>
        <mxCell id="_Be9lgDANuGz6kZ1BEno-24" value="" style="rhombus;whiteSpace=wrap;html=1;fontFamily=Times New Roman;fontSize=30;" vertex="1" parent="WIyWlLk6GJQsqaUBKTNV-1">
          <mxGeometry x="-330" y="400" width="120" height="80" as="geometry" />
        </mxCell>
        <mxCell id="_Be9lgDANuGz6kZ1BEno-25" value="" style="endArrow=classic;html=1;fontFamily=Times New Roman;fontSize=30;exitX=0.5;exitY=1;exitDx=0;exitDy=0;" edge="1" parent="WIyWlLk6GJQsqaUBKTNV-1">
          <mxGeometry width="50" height="50" relative="1" as="geometry">
            <mxPoint x="-270.5" y="480" as="sourcePoint" />
            <mxPoint x="-270.5" y="540" as="targetPoint" />
          </mxGeometry>
        </mxCell>
        <mxCell id="_Be9lgDANuGz6kZ1BEno-26" value="" style="endArrow=none;html=1;fontFamily=Times New Roman;fontSize=30;" edge="1" parent="WIyWlLk6GJQsqaUBKTNV-1">
          <mxGeometry width="50" height="50" relative="1" as="geometry">
            <mxPoint x="-400" y="830" as="sourcePoint" />
            <mxPoint x="-330" y="830" as="targetPoint" />
          </mxGeometry>
        </mxCell>
        <mxCell id="_Be9lgDANuGz6kZ1BEno-27" value="" style="endArrow=none;html=1;fontFamily=Times New Roman;fontSize=30;" edge="1" parent="WIyWlLk6GJQsqaUBKTNV-1">
          <mxGeometry width="50" height="50" relative="1" as="geometry">
            <mxPoint x="-400" y="830" as="sourcePoint" />
            <mxPoint x="-400" y="440" as="targetPoint" />
          </mxGeometry>
        </mxCell>
        <mxCell id="_Be9lgDANuGz6kZ1BEno-28" value="" style="endArrow=classic;html=1;fontFamily=Times New Roman;fontSize=30;entryX=0;entryY=0.5;entryDx=0;entryDy=0;" edge="1" parent="WIyWlLk6GJQsqaUBKTNV-1" target="_Be9lgDANuGz6kZ1BEno-24">
          <mxGeometry width="50" height="50" relative="1" as="geometry">
            <mxPoint x="-400" y="440" as="sourcePoint" />
            <mxPoint x="-350" y="390" as="targetPoint" />
          </mxGeometry>
        </mxCell>
        <mxCell id="_Be9lgDANuGz6kZ1BEno-31" value="" style="edgeStyle=orthogonalEdgeStyle;rounded=0;orthogonalLoop=1;jettySize=auto;html=1;fontFamily=Times New Roman;fontSize=30;exitX=0.5;exitY=1;exitDx=0;exitDy=0;" edge="1" parent="WIyWlLk6GJQsqaUBKTNV-1" source="_Be9lgDANuGz6kZ1BEno-23">
          <mxGeometry relative="1" as="geometry">
            <mxPoint x="-250" y="750" as="sourcePoint" />
            <mxPoint x="-270" y="930" as="targetPoint" />
          </mxGeometry>
        </mxCell>
        <mxCell id="_Be9lgDANuGz6kZ1BEno-32" value="&lt;font style=&quot;font-size: 20px&quot;&gt;Вывод &quot;x/nX=sqrt(a)&quot;&lt;/font&gt;" style="rounded=1;whiteSpace=wrap;html=1;fontFamily=Times New Roman;fontSize=30;arcSize=45;" vertex="1" parent="WIyWlLk6GJQsqaUBKTNV-1">
          <mxGeometry x="-360" y="930" width="180" height="70" as="geometry" />
        </mxCell>
        <mxCell id="_Be9lgDANuGz6kZ1BEno-33" value="" style="edgeStyle=orthogonalEdgeStyle;rounded=0;orthogonalLoop=1;jettySize=auto;html=1;fontFamily=Times New Roman;fontSize=30;exitX=0.5;exitY=1;exitDx=0;exitDy=0;" edge="1" parent="WIyWlLk6GJQsqaUBKTNV-1" source="_Be9lgDANuGz6kZ1BEno-32">
          <mxGeometry relative="1" as="geometry">
            <mxPoint x="-260" y="880" as="sourcePoint" />
            <mxPoint x="-270" y="1060" as="targetPoint" />
          </mxGeometry>
        </mxCell>
        <mxCell id="_Be9lgDANuGz6kZ1BEno-34" value="End" style="ellipse;whiteSpace=wrap;html=1;fontFamily=Times New Roman;fontSize=30;" vertex="1" parent="WIyWlLk6GJQsqaUBKTNV-1">
          <mxGeometry x="-360" y="1060" width="170" height="60" as="geometry" />
        </mxCell>
        <mxCell id="_Be9lgDANuGz6kZ1BEno-37" value="" style="endArrow=none;html=1;fontFamily=Times New Roman;fontSize=30;" edge="1" parent="WIyWlLk6GJQsqaUBKTNV-1">
          <mxGeometry width="50" height="50" relative="1" as="geometry">
            <mxPoint x="-520" y="1080" as="sourcePoint" />
            <mxPoint x="-520" y="430" as="targetPoint" />
          </mxGeometry>
        </mxCell>
        <mxCell id="_Be9lgDANuGz6kZ1BEno-38" value="" style="endArrow=classic;html=1;fontFamily=Times New Roman;fontSize=30;entryX=0;entryY=0.333;entryDx=0;entryDy=0;entryPerimeter=0;" edge="1" parent="WIyWlLk6GJQsqaUBKTNV-1" target="_Be9lgDANuGz6kZ1BEno-34">
          <mxGeometry width="50" height="50" relative="1" as="geometry">
            <mxPoint x="-520" y="1080" as="sourcePoint" />
            <mxPoint x="-460" y="1030" as="targetPoint" />
          </mxGeometry>
        </mxCell>
      </root>
    </mxGraphModel>
  </diagram>
</mxfile>
